<svg width="78" height="62" viewBox="0 0 78 62" fill="none" xmlns="http://www.w3.org/2000/svg">
<path d="M19.3719 1.44821C32.4329 0.312838 45.5678 0.312837 58.6288 1.4482L64.9214 1.99521C69.1105 2.35936 72.6982 4.85798 74.5572 8.43205C74.795 8.88928 74.6168 9.44288 74.1785 9.71415L48.0704 25.8763C42.4709 29.3427 35.4104 29.4154 29.7408 26.0651L3.45817 10.5345C3.03355 10.2836 2.83864 9.76709 3.03 9.31251C4.73066 5.27264 8.55412 2.38857 13.0793 1.99521L19.3719 1.44821Z" fill="white"/>
<path d="M3.00862 17.5285C2.35877 17.1445 1.52959 17.5577 1.45384 18.3087C0.396609 28.7905 0.652488 39.3716 2.22148 49.8054C3.04862 55.3058 7.53782 59.5227 13.0793 60.0044L19.3719 60.5514C32.4329 61.6868 45.5678 61.6868 58.6288 60.5514L64.9214 60.0044C70.4629 59.5227 74.9521 55.3058 75.7792 49.8054C77.3939 39.0675 77.6179 28.1737 76.4511 17.3926C76.3692 16.6363 75.5259 16.2307 74.8791 16.6311L51.3601 31.1905C43.7844 35.8802 34.2319 35.9786 26.5612 31.4459L3.00862 17.5285Z" fill="white"/>
</svg>
