<svg width="69" height="70" viewBox="0 0 69 70" fill="none" xmlns="http://www.w3.org/2000/svg">
<path d="M3.83433 28.0853C11.8193 45.4765 26.0277 59.3036 43.6925 66.7995L46.5241 68.0611C53.0025 70.9475 60.6181 68.7546 64.5695 62.865L68.2699 57.3495C69.4729 55.5563 69.1067 53.1411 67.426 51.7852L54.8766 41.6611C53.0334 40.174 50.3229 40.5204 48.9128 42.4232L45.0306 47.6617C35.0689 42.7478 26.9812 34.6601 22.0673 24.6984L27.3058 20.8162C29.2086 19.4061 29.5549 16.6957 28.0679 14.8524L17.9434 2.30262C16.5878 0.622284 14.1732 0.255754 12.38 1.45812L6.82652 5.18186C0.900083 9.15565 -1.28067 16.8342 1.67238 23.3298L3.83108 28.0782L3.83433 28.0853Z" fill="white"/>
</svg>
