<svg xmlns="http://www.w3.org/2000/svg" xmlns:xlink="http://www.w3.org/1999/xlink" width="50.355" height="50.353" viewBox="0 0 50.355 50.353">
  <defs>
    <linearGradient id="linear-gradient" x1="0.5" x2="0.5" y2="1" gradientUnits="objectBoundingBox">
      <stop offset="0" stop-color="#00004b"/>
      <stop offset="1" stop-color="blue"/>
    </linearGradient>
  </defs>
  <path id="worldwide" d="M2.026,6.094c.15-.126.133-.323.2-.484a2.945,2.945,0,0,1,3.8-1.674,2.9,2.9,0,0,1,1.652,3.8.478.478,0,0,0,.116.623q4.48,4.524,8.938,9.07c.234.239.357.243.616.034A14.593,14.593,0,0,1,26,14.166c.32-.016.371-.124.368-.405-.013-1.245-.025-2.491.006-3.736.009-.378-.141-.482-.463-.58a2.9,2.9,0,0,1-2.031-3.237,2.937,2.937,0,0,1,5.727-.332A2.871,2.871,0,0,1,28.4,9.092a.669.669,0,0,0-.362.662q.026,2.015,0,4.031c0,.309.082.427.4.461a14.518,14.518,0,0,1,7.935,3.436c.208.175.309.184.5-.019q4.757-4.975,9.534-9.93a.581.581,0,0,0,.163-.567A2.915,2.915,0,0,1,49.092,3.75a2.94,2.94,0,1,1,.449,5.857,2.662,2.662,0,0,1-1.668-.482c-.2-.142-.318-.178-.516.029q-4.637,4.851-9.3,9.681c-.188.195-.19.305-.011.513A14.511,14.511,0,0,1,41.584,27.5c.045.435.153.6.634.583,1.1-.046,2.2-.025,3.294-.007a.676.676,0,0,0,.667-.355,2.874,2.874,0,0,1,3.49-1.124,2.935,2.935,0,0,1-.793,5.657A2.9,2.9,0,0,1,45.8,30.112c-.074-.264-.161-.375-.455-.37-1.1.019-2.2.017-3.294,0-.284,0-.383.055-.405.367a14.656,14.656,0,0,1-3.4,8.509c-.234.282-.218.41.031.662q4.567,4.61,9.109,9.246c.168.171.279.289.561.12a2.914,2.914,0,0,1,4.374,3.019,2.791,2.791,0,0,1-2.285,2.339c-.041.009-.075.049-.112.075H48.839A2.907,2.907,0,0,1,46.393,51.5a2.166,2.166,0,0,1,.048-.876.661.661,0,0,0-.219-.708c-.037-.032-.07-.069-.1-.1-2.86-2.9-5.693-5.835-8.6-8.7-.737-.726-.736-.739-1.581-.092a14.894,14.894,0,0,1-7.257,3.027c-.353.045-.478.167-.474.519q.022,1.67,0,3.34a.948.948,0,0,0,.421.823,3.046,3.046,0,0,1-.137,4.96,3.171,3.171,0,0,1-1.191.384H26.22a2.976,2.976,0,0,1-.683-5.677.936.936,0,0,0,.666-1.069c-.042-.882-.02-1.768-.007-2.652.005-.341-.094-.491-.465-.52A15.068,15.068,0,0,1,17.5,41.031c-.237-.184-.407-.205-.618.045-.835.989-1.787,1.868-2.681,2.8-1.325,1.382-2.628,2.786-3.989,4.135-.673.667-1.286,1.4-1.97,2.055a.757.757,0,0,0-.252.657,2.873,2.873,0,0,1-2.519,3.356H4.386a2.678,2.678,0,0,1-2.36-2.36v-1.18A2.886,2.886,0,0,1,4.605,48.1a2.656,2.656,0,0,1,1.792.376.586.586,0,0,0,.851-.134c1.861-2.023,3.826-3.948,5.686-5.973.8-.868,1.688-1.645,2.454-2.545.248-.291.295-.457.018-.77a14.562,14.562,0,0,1-3.634-8.069c-.153-1.287-.168-1.045-1.226-1.064-.655-.012-1.311.017-1.965-.009a.718.718,0,0,0-.81.525,2.861,2.861,0,0,1-2.8,1.933A2.868,2.868,0,0,1,2.026,29.89V28.71a2.776,2.776,0,0,1,2.216-2.338,2.884,2.884,0,0,1,3.164,1.151A.817.817,0,0,0,8.1,27.9c1.048-.009,2.1-.006,3.143,0,.316,0,.462-.107.5-.448a14.725,14.725,0,0,1,3.568-8.2c.272-.315.242-.5-.034-.771-2.911-2.829-5.668-5.811-8.559-8.661a.8.8,0,0,0-.907-.236,3,3,0,0,1-3.4-1.219,3.389,3.389,0,0,1-.385-1.093Q2.026,6.684,2.026,6.094Zm11.8,23.655c-.2,0-.378-.032-.352.295a13.305,13.305,0,0,0,3.376,7.931c.161.182.265.227.473.054a13.52,13.52,0,0,1,3.154-1.963c.164-.073.258-.14.2-.361a26.548,26.548,0,0,1-.692-5.591c-.007-.313-.13-.375-.414-.37-.95.016-1.9.006-2.85.006Q15.272,29.749,13.822,29.749Zm5.709-1.675c.372.011.471-.108.479-.466a25.063,25.063,0,0,1,.65-5.055c.057-.25,0-.34-.216-.438a13.639,13.639,0,0,1-3.111-1.941c-.195-.163-.3-.158-.475.034a13.221,13.221,0,0,0-3.343,7.487c-.036.329.072.381.364.376.95-.016,1.9-.006,2.851-.006C17.664,28.065,18.6,28.046,19.531,28.074Zm14.738,1.668c-.3-.007-.38.084-.386.383a27.866,27.866,0,0,1-.706,5.692c-.046.2-.062.318.159.424a13.574,13.574,0,0,1,2.8,1.8c.172.142.273.153.436-.029a13.348,13.348,0,0,0,3.408-7.924c.027-.307-.092-.345-.353-.341-.885.014-1.77.005-2.655.005C36.071,29.749,35.17,29.762,34.269,29.742Zm5.337-1.674c.249,0,.381-.011.343-.341a13.384,13.384,0,0,0-3.293-7.455c-.229-.262-.362-.255-.615-.042A12.793,12.793,0,0,1,33.45,21.9c-.26.128-.342.234-.267.545a26.226,26.226,0,0,1,.688,5.243c.013.346.138.389.43.384.867-.016,1.735-.006,2.6-.006C37.8,28.065,38.705,28.06,39.605,28.068ZM26.366,30.144c.006-.276-.037-.407-.366-.4-1.341.019-2.682.01-4.024.006-.2,0-.333.013-.324.284a28.6,28.6,0,0,0,.583,5.009c.057.273.158.289.4.22a13.38,13.38,0,0,1,3.428-.539c.292-.008.308-.135.305-.357-.008-.7,0-1.407,0-2.11S26.351,30.847,26.366,30.144Zm-.4-2.074c.281.007.4-.046.4-.37-.019-1.293-.014-2.586,0-3.879,0-.249-.061-.33-.321-.342a13.518,13.518,0,0,1-3.379-.543c-.3-.093-.392,0-.447.278a28.668,28.668,0,0,0-.549,4.524c-.009.264.066.337.323.331.671-.015,1.342-.005,2.013-.005C24.66,28.065,25.315,28.053,25.969,28.07ZM32.22,29.95c.008-.246-.156-.2-.3-.2-1.179,0-2.358,0-3.536-.005-.239,0-.351.044-.349.319q.018,2.185,0,4.371c0,.259.1.342.338.362a14.052,14.052,0,0,1,3.141.689A26.536,26.536,0,0,0,32.22,29.95Zm-4.18-2.211c-.007.262.084.334.338.331,1.163-.011,2.327-.014,3.49,0,.281,0,.362-.075.345-.356a31.792,31.792,0,0,0-.6-4.671c-.054-.258-.13-.34-.413-.244a11.754,11.754,0,0,1-2.824.6c-.294.023-.342.157-.337.408.012.655,0,1.311,0,1.966S28.056,27.084,28.039,27.739ZM26.366,16.422c.006-.311-.093-.33-.337-.2a4.14,4.14,0,0,0-1.3,1.1,11.885,11.885,0,0,0-1.885,3.636c-.093.265.012.309.2.362a16.525,16.525,0,0,0,2.947.5c.325.03.38-.093.375-.38-.017-.819-.006-1.638-.006-2.457C26.361,18.126,26.351,17.274,26.366,16.422Zm0,20.185c0-.22-.111-.23-.276-.221a14.311,14.311,0,0,0-3.095.506c-.165.046-.238.105-.166.31a11.216,11.216,0,0,0,2.1,3.9,3.085,3.085,0,0,0,1.435.984C26.36,40.237,26.358,38.422,26.364,36.608ZM28.043,21.53c0,.287.194.209.339.191a13.408,13.408,0,0,0,2.434-.548c.216-.07.234-.14.162-.343a14.563,14.563,0,0,0-.985-2.237,6.237,6.237,0,0,0-1.947-2.26C28.045,18.135,28.048,19.833,28.043,21.53Zm.338,20.1a9.745,9.745,0,0,0,2.633-4.349c.075-.2-.077-.21-.2-.25a13.527,13.527,0,0,0-2.433-.556c-.3-.042-.36.078-.345.343.018.327,0,.655,0,.982V41.86C28.224,41.736,28.308,41.688,28.381,41.627Zm-4.951.321a14.29,14.29,0,0,1-2.252-4.359A13.007,13.007,0,0,0,18.3,39.378,13.185,13.185,0,0,0,23.43,41.948ZM20.9,20.475c.2.1.307.114.387-.131a13.266,13.266,0,0,1,2.144-4.1,13.025,13.025,0,0,0-5.115,2.574A13.092,13.092,0,0,0,20.9,20.475ZM33.4,38.167c-.753-.447-.762-.449-1.064.354a13.765,13.765,0,0,1-1.792,3.3,13.263,13.263,0,0,0,4.584-2.438A13.064,13.064,0,0,0,33.4,38.167Zm1.488-19.158c.121-.1.3-.164.061-.35a13.381,13.381,0,0,0-4.41-2.285,14.511,14.511,0,0,1,2.083,4.067A12.7,12.7,0,0,0,34.893,19.009ZM49.47,5.411A1.26,1.26,0,1,0,50.7,6.684,1.28,1.28,0,0,0,49.47,5.411ZM6.225,51.153a1.3,1.3,0,0,0-1.241-1.271,1.26,1.26,0,1,0,1.241,1.271Zm44.477.009a1.26,1.26,0,1,0-1.264,1.24A1.282,1.282,0,0,0,50.7,51.162ZM3.7,6.635a1.285,1.285,0,0,0,1.261,1.3,1.26,1.26,0,0,0,.019-2.519A1.273,1.273,0,0,0,3.7,6.635ZM6.224,29.317a1.26,1.26,0,1,0-1.239,1.262A1.265,1.265,0,0,0,6.224,29.317ZM26.794,5.412A1.26,1.26,0,1,0,28.034,6.67,1.262,1.262,0,0,0,26.794,5.412Zm0,44.472a1.26,1.26,0,1,0,1.238,1.262A1.267,1.267,0,0,0,26.8,49.884ZM47.355,29.339a1.247,1.247,0,1,0,1.224-1.265A1.247,1.247,0,0,0,47.355,29.339Z" transform="translate(-2.026 -3.728)" fill="url(#linear-gradient)"/>
</svg>
